<svg width="32" height="32" viewBox="0 0 32 32" fill="none" xmlns="http://www.w3.org/2000/svg">
<g id="GTB">
<g clip-path="url(#clip0_15166_3895)">
<path id="Vector" fill-rule="evenodd" clip-rule="evenodd" d="M0 0H32V32H0V0Z" fill="#D94F00"/>
<path id="Vector_2" fill-rule="evenodd" clip-rule="evenodd" d="M17.9108 7.67969H24.714V14.4154H17.9108V7.67969ZM9.68614 17.8226V18.4815H10.8587V21.9677H11.6672V18.4549H12.7589V17.796L9.68614 17.8226ZM9.08228 18.6395V17.9806C8.43366 17.6908 7.68774 17.6032 6.92402 17.9806C5.67154 18.5339 5.62677 21.274 6.87971 21.8097C7.59913 22.1699 9.09964 22.0029 9.25083 21.6865V19.5174H7.759V20.0883H8.41584V21.2302C6.25758 22.2665 5.8579 17.2869 9.08228 18.6395ZM14.0739 20.0531H14.8463C15.4858 20.0797 15.6548 21.274 14.8198 21.2649H14.0739V20.0531ZM14.0739 18.3759H14.8463C15.4858 18.4901 15.2551 19.4298 14.8198 19.456H14.0739V18.3759ZM13.2746 17.735V21.9325H15.3972C16.4807 21.5461 16.5254 19.8866 15.3972 19.7105C16.4364 19.5968 16.4898 17.7084 14.6956 17.7084L13.2746 17.735ZM17.0224 18.9117V19.535C17.5906 19.377 18.8253 18.9378 18.7097 19.869C17.6263 19.7985 16.889 19.9917 16.7648 20.6588C16.5606 22.0995 18.1237 22.2398 18.781 21.5285V21.8711H19.5269V19.3418C19.3405 18.5249 18.1063 18.4197 17.0224 18.9117ZM17.6528 20.5365C17.8218 20.3167 18.3635 20.3253 18.7275 20.4309V20.9842C18.1328 21.6161 17.1731 21.3272 17.6528 20.5365ZM21.0726 19.6582C21.2681 19.4474 22.3073 19.052 22.4672 19.6582V21.8887H23.3017V19.5264C23.124 18.5425 22.1735 18.3669 21.0192 19.0344V18.6657H20.229V21.9063H21.0635L21.0726 19.6582ZM25.9218 18.6305L24.8296 20.0793L25.9843 21.8621L26.9879 21.8359L25.718 20.1235L26.8636 18.6567L25.9218 18.6305ZM23.9238 17.5676H24.7497V21.8621H23.9234L23.9238 17.5676Z" fill="white"/>
</g>
</g>
<defs>
<clipPath id="clip0_15166_3895">
<rect width="32" height="32" rx="16" fill="white"/>
</clipPath>
</defs>
</svg>
