<svg width="100" height="120" viewBox="0 0 79 96" fill="none" xmlns="http://www.w3.org/2000/svg">
<g clip-path="url(#clip0_15101_15619)">
<g filter="url(#filter0_d_15101_15619)">
<g clip-path="url(#clip1_15101_15619)">
<g filter="url(#filter1_d_15101_15619)">
<path d="M-31.5244 105.096L20.4756 15.0291L76.9482 47.6336L24.9482 137.7L-31.5244 105.096Z" fill="url(#paint0_linear_15101_15619)"/>
</g>
<g filter="url(#filter2_i_15101_15619)">
<path d="M29.244 27.9715L28.9553 28.2398L28.8356 28.3514L28.9445 28.4728C29.5784 29.1801 30.093 29.8853 30.3167 30.938L30.375 31.2108L30.5871 31.0288L31.7618 30.0258L31.9164 29.8942L31.7565 29.7684L29.46 27.9624L29.3485 27.8746L29.2447 27.9703L29.244 27.9715Z" fill="white"/>
<path d="M21.2156 27.1235C22.6722 27.8691 24.3182 28.8312 25.4418 29.945C26.5666 31.0594 27.1274 32.2816 26.5409 33.5757C26.3195 34.0635 25.9063 34.3937 25.4782 34.5615C25.0558 34.7107 24.6235 34.6886 24.1709 34.4875L24.1646 34.4839L24.1569 34.4828C24.1149 34.4686 24.07 34.4477 24.0199 34.4187L23.8467 34.3188C23.3913 34.0558 23.0591 33.7185 22.8442 33.3084C22.6275 32.8955 22.5325 32.4458 22.5612 31.9556C22.587 31.4502 22.7411 30.9486 23.028 30.4518C23.0417 30.4279 23.1054 30.3292 23.1783 30.2174C23.2985 30.0325 23.4453 29.868 23.6136 29.7242L23.719 29.6345L23.6117 29.5073L23.7272 29.3883C23.3769 29.0506 22.9278 28.7244 22.506 28.4641C22.0866 28.2053 21.6802 28.0024 21.4183 27.9198L21.3374 27.8948L21.2702 27.9447C20.8764 28.2326 20.5665 28.6709 20.3694 29.0122C19.9833 29.6809 19.7311 30.3902 19.6155 31.1381C19.4898 31.8803 19.5032 32.6191 19.6584 33.3527L19.6594 33.3525L19.6592 33.3515L19.8209 33.3177L19.6594 33.3525C19.8215 34.0798 20.1293 34.7573 20.5813 35.3878C21.0265 36.0162 21.6263 36.5449 22.3728 36.9759C23.1721 37.4373 23.9998 37.6843 24.8566 37.7157L24.8591 37.7171C25.7085 37.7324 26.4986 37.5461 27.2274 37.1589L27.2281 37.1576C27.9684 36.7737 28.5554 36.2059 28.9857 35.4607C29.3153 34.8898 29.6162 34.2789 29.7633 33.6328C30.0711 32.2798 29.9524 30.8946 28.9628 29.43C27.9791 27.9754 26.144 26.4542 23.0461 24.7961L23.0424 24.794L23.0379 24.7916C22.927 24.7325 22.7382 24.6578 22.6567 24.6275L21.2156 27.1235Z" fill="white"/>
</g>
<path d="M19.681 33.3663C19.8436 34.0844 20.149 34.7538 20.5959 35.3773L20.596 35.3774C21.0395 36.0034 21.6373 36.5304 22.3819 36.9603C23.1787 37.4204 24.0036 37.6664 24.8573 37.6976L24.8668 37.698L24.8661 37.6992C25.7082 37.7133 26.4915 37.5285 27.2143 37.1454L27.2182 37.1387L27.2198 37.1416C27.9569 36.7593 28.5415 36.1941 28.9701 35.4516C29.2994 34.8813 29.5992 34.2722 29.7458 33.6288C30.0525 32.28 29.9343 30.9001 28.9479 29.4401C27.9666 27.9891 26.1344 26.4695 23.0376 24.812L23.0371 24.8117L23.0336 24.8097L23.0334 24.8096L23.0295 24.8075M19.681 33.3663L23.0294 24.8075M19.681 33.3663L19.8245 33.3354L19.8247 33.3353L19.8172 33.3001L19.8171 33.3001L19.6722 33.3304C19.5211 32.6051 19.509 31.8748 19.6332 31.1411L19.6332 31.1411L19.6333 31.1409C19.7486 30.3952 20 29.6881 20.385 29.0212C20.5816 28.6808 20.89 28.245 21.2808 27.9592L21.2809 27.9591L21.3408 27.9147L21.4129 27.937C21.4129 27.937 21.413 27.937 21.413 27.937C21.6727 28.0189 22.0777 28.2209 22.4965 28.4794C22.9124 28.7361 23.3545 29.0566 23.7017 29.3888L23.5988 29.4948L23.5874 29.5065L23.5979 29.519L23.6936 29.6324L23.6019 29.7105L23.6019 29.7105C23.4324 29.8553 23.2844 30.0211 23.1632 30.2075C23.1632 30.2075 23.1632 30.2075 23.1632 30.2076L19.681 33.3663ZM23.0295 24.8075L23.0294 24.8075M23.0295 24.8075C23.0295 24.8075 23.0294 24.8075 23.0294 24.8075M23.0295 24.8075L22.6646 24.6498M23.0294 24.8075C22.9257 24.7522 22.7521 24.6828 22.6646 24.6498M22.6646 24.6498L21.2407 27.1161C22.6933 27.8607 24.3332 28.8206 25.4545 29.9322C26.5813 31.0486 27.1485 32.2786 26.5573 33.5831L26.5573 33.5831C26.3336 34.0759 25.9165 34.4091 25.4848 34.5782L25.4842 34.5785L25.4842 34.5784C25.0571 34.7294 24.62 34.7068 24.1635 34.504L24.1618 34.5032L24.1618 34.5031L24.1586 34.5012L24.1543 34.5006L24.151 34.5002L24.1511 34.4999C24.1077 34.4852 24.0618 34.4638 24.0108 34.4344L23.8377 34.3344C23.3797 34.0699 23.0449 33.7302 22.8282 33.3167C22.8282 33.3167 22.8282 33.3167 22.8282 33.3167L22.8442 33.3084C22.6275 32.8955 22.5325 32.4458 22.5612 31.9556L22.6646 24.6498ZM29.2563 27.9847L29.2568 27.9854L29.2589 27.9817L29.3494 27.8983L29.4489 27.9766L29.4489 27.9766L31.7453 29.7826L31.8879 29.8947L31.7501 30.012L31.7501 30.012L30.5754 31.0151L30.5754 31.0151L30.3863 31.1774L30.3343 30.9342C30.1097 29.8771 29.5927 29.169 28.9579 28.4608L28.8609 28.3525L28.9675 28.253L28.9676 28.253L29.2563 27.9847ZM23.0124 30.4427C22.7243 30.9418 22.5692 31.4461 22.5432 31.9546L23.0124 30.4427Z" stroke="#4F59DD" stroke-width="0.0360531"/>
<path d="M58.5712 60.4957L57.5889 62.1971L51.6674 57.3606L52.6498 55.659L58.5712 60.4957ZM50.2271 59.8553L53.7857 64.0726L52.7069 63.7057L52.7073 63.7057L49.4378 62.5813C49.4378 62.5813 48.8094 62.3108 48.3834 63.0487L46.8351 65.7303L46.9276 65.8256C46.9276 65.8256 47.5717 65.1041 48.7022 64.4772L55.2335 66.2771L56.257 64.5044L51.2843 58.0241L50.2271 59.8553ZM64.4889 50.2459L65.3909 48.6836L58.0689 46.2724L57.2793 47.6401C56.9146 48.2717 57.3128 48.7068 57.3128 48.7068L61.8963 54.7364L62.9203 52.9628L62.1543 52.0476L63.4031 49.8847L64.4889 50.2459ZM61.0962 50.7834L59.1666 48.4774L61.9027 49.3865L61.0962 50.7834ZM57.0093 51.7376L55.7461 50.6845C55.7461 50.6845 55.0286 51.2692 54.5776 52.0502C54.0901 52.8946 53.3016 55.1127 55.0961 56.1488C56.7845 57.1236 58.1641 54.7824 59.051 55.2944C59.9378 55.8064 58.5602 57.8255 57.5988 58.1992L58.9202 59.2994C58.9202 59.2994 59.7278 58.7528 60.398 57.592C61.0683 56.4309 61.4784 54.3322 59.8421 53.3875C58.1429 52.4065 56.6138 54.6896 55.875 54.263C55.1362 53.8362 56.1878 52.234 57.0093 51.7376Z" fill="white"/>
<path d="M64.554 56.4001L64.2538 56.92L62.5689 55.9472L62.8824 55.4042C62.9767 55.2408 63.0912 55.1204 63.2258 55.043C63.3599 54.9654 63.5076 54.9318 63.669 54.9424C63.8298 54.9526 63.9975 55.0081 64.1719 55.1088C64.3474 55.2101 64.4805 55.3286 64.5711 55.4643C64.6611 55.5996 64.7056 55.7467 64.7046 55.9056C64.703 56.0641 64.6528 56.2289 64.554 56.4001ZM64.1906 56.6115L64.3654 56.3087C64.4459 56.1694 64.4857 56.0384 64.4848 55.9158C64.4839 55.7932 64.4468 55.6807 64.3735 55.5784C64.3002 55.4761 64.195 55.3854 64.0579 55.3062C63.9219 55.2277 63.7919 55.1823 63.6681 55.17C63.5437 55.1575 63.4297 55.1801 63.3261 55.238C63.2219 55.2956 63.1318 55.3902 63.0558 55.5219L62.8677 55.8477L64.1906 56.6115ZM65.2001 55.2811L63.9363 54.5515L64.0484 54.3574L65.3122 55.087L65.2001 55.2811ZM63.7827 54.3312C63.7609 54.369 63.7291 54.3942 63.6875 54.4068C63.6462 54.4188 63.6075 54.4143 63.5713 54.3934C63.5351 54.3725 63.5118 54.3412 63.5016 54.2994C63.4916 54.2571 63.4976 54.217 63.5194 54.1792C63.5413 54.1413 63.5729 54.1164 63.6142 54.1044C63.6558 54.0919 63.6947 54.0961 63.7309 54.117C63.7671 54.1379 63.7901 54.1695 63.8001 54.2118C63.8104 54.2535 63.8046 54.2933 63.7827 54.3312ZM66.3122 54.51C66.2581 54.6038 66.1994 54.6775 66.1364 54.731C66.0738 54.7849 66.0101 54.823 65.9452 54.8455C65.8811 54.8678 65.8196 54.8794 65.7605 54.8804L65.7412 54.663C65.7744 54.6588 65.8135 54.6518 65.8587 54.642C65.9043 54.6325 65.9516 54.6108 66.0005 54.5769C66.0502 54.5427 66.0971 54.4875 66.1411 54.4112C66.2 54.3092 66.2239 54.2108 66.2129 54.1159C66.2018 54.021 66.1436 53.9432 66.0383 53.8824L65.7816 53.7342L65.7721 53.7507C65.7869 53.7782 65.8037 53.815 65.8225 53.8609C65.8411 53.906 65.8495 53.9606 65.8476 54.0246C65.8455 54.0878 65.8207 54.1605 65.7732 54.2428C65.7143 54.3448 65.6373 54.4224 65.5422 54.4757C65.4474 54.5285 65.3403 54.5519 65.2209 54.5458C65.1018 54.5393 64.9765 54.498 64.8448 54.422C64.7154 54.3472 64.6158 54.2594 64.5461 54.1585C64.4759 54.0572 64.4378 53.9508 64.4321 53.8392C64.4257 53.7273 64.4533 53.6182 64.5147 53.5117C64.5622 53.4295 64.6136 53.3721 64.6689 53.3397C64.724 53.3064 64.7762 53.2868 64.8256 53.281C64.8748 53.2743 64.9145 53.2702 64.9447 53.2686L64.9561 53.2488L64.7554 53.1329L64.8637 52.9453L66.1636 53.6958C66.2722 53.7585 66.3462 53.8342 66.3858 53.9228C66.4261 54.0112 66.4383 54.106 66.4223 54.2072C66.4072 54.3082 66.3705 54.4091 66.3122 54.51ZM65.614 54.1157C65.659 54.0378 65.6792 53.9617 65.6745 53.8874C65.6699 53.8131 65.6422 53.7426 65.5915 53.676C65.5407 53.6094 65.4687 53.5491 65.3755 53.4953C65.2844 53.4427 65.1961 53.4101 65.1106 53.3973C65.0251 53.3845 64.9471 53.3936 64.8766 53.4245C64.8061 53.4555 64.748 53.5104 64.7024 53.5894C64.6549 53.6717 64.6362 53.7523 64.6462 53.8312C64.6565 53.9096 64.6889 53.9827 64.7433 54.0507C64.798 54.1181 64.8681 54.1765 64.9536 54.2259C65.0414 54.2766 65.1269 54.3077 65.2102 54.3192C65.2933 54.3299 65.3697 54.3191 65.4394 54.287C65.509 54.254 65.5671 54.1969 65.614 54.1157ZM66.3326 53.3195L65.0689 52.5899L65.181 52.3957L66.4447 53.1254L66.3326 53.3195ZM64.9152 52.3696C64.8934 52.4074 64.8617 52.4326 64.8201 52.4452C64.7788 52.4572 64.74 52.4527 64.7038 52.4318C64.6676 52.4109 64.6444 52.3796 64.6341 52.3378C64.6242 52.2955 64.6301 52.2554 64.652 52.2176C64.6738 52.1797 64.7054 52.1548 64.7467 52.1428C64.7883 52.1303 64.8272 52.1345 64.8634 52.1554C64.8996 52.1763 64.9227 52.2079 64.9326 52.2502C64.9429 52.2919 64.9371 52.3317 64.9152 52.3696ZM65.7036 51.4905L65.8681 51.5855L65.49 52.2404L65.3255 52.1454L65.7036 51.4905ZM65.1329 51.7797L65.245 51.5856L66.4495 52.281C66.5044 52.3127 66.5501 52.3285 66.5867 52.3284C66.6231 52.3274 66.6532 52.3171 66.6771 52.2972C66.7008 52.2765 66.7208 52.2519 66.7373 52.2234C66.7496 52.202 66.7587 52.1838 66.7644 52.1688C66.7696 52.1535 66.7737 52.1413 66.7768 52.1321L66.974 52.1933C66.9714 52.2093 66.9657 52.2305 66.957 52.257C66.9489 52.2837 66.9344 52.3152 66.9135 52.3514C66.8818 52.4063 66.839 52.4532 66.785 52.4922C66.7313 52.5307 66.6704 52.5533 66.6022 52.56C66.5343 52.5661 66.4636 52.548 66.3901 52.5056L65.1329 51.7797ZM67.3803 51.5733C67.334 51.6534 67.277 51.7173 67.2091 51.7652C67.1407 51.8127 67.0667 51.8391 66.9869 51.8442C66.9066 51.849 66.8253 51.8277 66.743 51.7802C66.6706 51.7384 66.6202 51.6903 66.5917 51.6358C66.5626 51.581 66.549 51.5223 66.5507 51.4597C66.5525 51.3971 66.5637 51.3333 66.5843 51.2684C66.6048 51.2027 66.6281 51.1383 66.6543 51.0751C66.6887 50.9927 66.7173 50.9261 66.7399 50.8756C66.7623 50.8241 66.7735 50.7838 66.7735 50.7546C66.7739 50.7248 66.7584 50.7009 66.7272 50.6828L66.7206 50.679C66.6394 50.6322 66.5635 50.618 66.4929 50.6364C66.4226 50.6543 66.3616 50.708 66.31 50.7974C66.2565 50.8901 66.2348 50.9745 66.245 51.0506C66.2552 51.1267 66.2772 51.1887 66.3109 51.2367L66.1387 51.383C66.0809 51.3058 66.0464 51.2274 66.0353 51.1478C66.024 51.0674 66.0286 50.9896 66.0493 50.9146C66.0697 50.8386 66.0983 50.7688 66.1351 50.7052C66.1585 50.6646 66.1904 50.6208 66.2306 50.5739C66.2707 50.5261 66.3198 50.486 66.3779 50.4537C66.4363 50.4209 66.5049 50.4053 66.5837 50.4069C66.6625 50.4085 66.7521 50.4383 66.8524 50.4963L67.6851 50.977L67.573 51.1711L67.4018 51.0723L67.3961 51.0822C67.4159 51.1112 67.4326 51.1501 67.4462 51.1989C67.4597 51.2476 67.4627 51.3039 67.4552 51.3675C67.4477 51.4312 67.4227 51.4998 67.3803 51.5733ZM67.2229 51.443C67.2673 51.3662 67.2896 51.2928 67.2898 51.2227C67.2904 51.1521 67.2745 51.0895 67.2423 51.0351C67.2104 50.9801 67.1682 50.9374 67.1155 50.907L66.9378 50.8044C66.9429 50.8184 66.9415 50.8417 66.9336 50.8744C66.9254 50.9063 66.9139 50.942 66.8991 50.9817C66.884 51.0206 66.8688 51.0582 66.8536 51.0948C66.8381 51.1304 66.8257 51.1595 66.8164 51.1819C66.7938 51.2362 66.7773 51.2895 66.7668 51.342C66.756 51.3935 66.7574 51.4411 66.771 51.4848C66.7843 51.5276 66.8156 51.5632 66.865 51.5917C66.9325 51.6307 66.9979 51.6352 67.0613 51.6052C67.1244 51.5744 67.1783 51.5203 67.2229 51.443ZM66.3168 49.4556L68.0018 50.4284L67.8897 50.6226L66.2047 49.6498L66.3168 49.4556Z" fill="white"/>
</g>
<rect x="-31.296" y="105.035" width="103.666" height="64.8746" rx="3.84566" transform="rotate(-60 -31.296 105.035)" stroke="#6771FF" stroke-width="0.334405"/>
<rect x="-31.296" y="105.035" width="103.666" height="64.8746" rx="3.84566" transform="rotate(-60 -31.296 105.035)" stroke="white" stroke-opacity="0.07" stroke-width="0.334405"/>
</g>
</g>
<defs>
<filter id="filter0_d_15101_15619" x="-35.0858" y="12.4711" width="115.595" height="129.794" filterUnits="userSpaceOnUse" color-interpolation-filters="sRGB">
<feFlood flood-opacity="0" result="BackgroundImageFix"/>
<feColorMatrix in="SourceAlpha" type="matrix" values="0 0 0 0 0 0 0 0 0 0 0 0 0 0 0 0 0 0 127 0" result="hardAlpha"/>
<feOffset dy="1.00322"/>
<feGaussianBlur stdDeviation="1.78071"/>
<feComposite in2="hardAlpha" operator="out"/>
<feColorMatrix type="matrix" values="0 0 0 0 0 0 0 0 0 0 0 0 0 0 0 0 0 0 0.24 0"/>
<feBlend mode="normal" in2="BackgroundImageFix" result="effect1_dropShadow_15101_15619"/>
<feBlend mode="normal" in="SourceGraphic" in2="effect1_dropShadow_15101_15619" result="shape"/>
</filter>
<filter id="filter1_d_15101_15619" x="-35.0858" y="12.4711" width="115.595" height="129.794" filterUnits="userSpaceOnUse" color-interpolation-filters="sRGB">
<feFlood flood-opacity="0" result="BackgroundImageFix"/>
<feColorMatrix in="SourceAlpha" type="matrix" values="0 0 0 0 0 0 0 0 0 0 0 0 0 0 0 0 0 0 127 0" result="hardAlpha"/>
<feOffset dy="1.00322"/>
<feGaussianBlur stdDeviation="1.78071"/>
<feComposite in2="hardAlpha" operator="out"/>
<feColorMatrix type="matrix" values="0 0 0 0 0 0 0 0 0 0 0 0 0 0 0 0 0 0 0.24 0"/>
<feBlend mode="normal" in2="BackgroundImageFix" result="effect1_dropShadow_15101_15619"/>
<feBlend mode="normal" in="SourceGraphic" in2="effect1_dropShadow_15101_15619" result="shape"/>
</filter>
<filter id="filter2_i_15101_15619" x="19.5305" y="24.6274" width="12.3859" height="14.1719" filterUnits="userSpaceOnUse" color-interpolation-filters="sRGB">
<feFlood flood-opacity="0" result="BackgroundImageFix"/>
<feBlend mode="normal" in="SourceGraphic" in2="BackgroundImageFix" result="shape"/>
<feColorMatrix in="SourceAlpha" type="matrix" values="0 0 0 0 0 0 0 0 0 0 0 0 0 0 0 0 0 0 127 0" result="hardAlpha"/>
<feOffset dy="1.08159"/>
<feGaussianBlur stdDeviation="1.44212"/>
<feComposite in2="hardAlpha" operator="arithmetic" k2="-1" k3="1"/>
<feColorMatrix type="matrix" values="0 0 0 0 0.403922 0 0 0 0 0.443137 0 0 0 0 1 0 0 0 0.16 0"/>
<feBlend mode="normal" in2="shape" result="effect1_innerShadow_15101_15619"/>
</filter>
<linearGradient id="paint0_linear_15101_15619" x1="-5.52441" y1="60.0624" x2="50.9482" y2="92.6669" gradientUnits="userSpaceOnUse">
<stop stop-color="#6771FF"/>
<stop offset="0.0625" stop-color="#636CF5"/>
<stop offset="0.119792" stop-color="#6771FF"/>
<stop offset="0.182292" stop-color="#636CF5"/>
<stop offset="0.239583" stop-color="#6771FF"/>
<stop offset="0.291667" stop-color="#636CF5"/>
<stop offset="0.364583" stop-color="#6771FF"/>
<stop offset="0.442708" stop-color="#636CF5"/>
<stop offset="0.510417" stop-color="#6771FF"/>
<stop offset="0.59375" stop-color="#6771FF"/>
<stop offset="0.625" stop-color="#6771FF"/>
<stop offset="0.723958" stop-color="#6771FF"/>
<stop offset="0.796875" stop-color="#636CF5"/>
<stop offset="0.864583" stop-color="#6771FF"/>
<stop offset="0.932292" stop-color="#636CF5"/>
<stop offset="0.979167" stop-color="#6771FF"/>
</linearGradient>
<clipPath id="clip0_15101_15619">
<rect width="79" height="96" rx="12" fill="white"/>
</clipPath>
<clipPath id="clip1_15101_15619">
<rect x="-31.5244" y="105.096" width="104" height="65.209" rx="4.01286" transform="rotate(-60 -31.5244 105.096)" fill="white"/>
</clipPath>
</defs>
</svg>
