<svg width="30" height="30" viewBox="0 0 36 36" fill="none" xmlns="http://www.w3.org/2000/svg">
<rect width="36" height="36" rx="8" fill="#111111"/>
<g filter="url(#filter0_d_14419_49728)">
<path d="M28.2958 8.26692L28.2871 7.99716L22.4772 7.03125L22.4975 7.44024C22.715 11.6984 22.4975 14.9819 21.8419 17.4735C20.9486 20.8585 19.2227 22.7004 16.7078 22.9499C15.7564 23.0427 14.7557 22.7352 13.9668 22.1058C13.2822 21.5228 12.9022 20.7657 12.8007 19.7911L12.7949 19.7621C12.7775 19.6751 12.7688 19.5735 12.7688 19.4517V19.0717C12.7688 18.0449 13.0182 17.1283 13.5085 16.3539C13.9987 15.5765 14.6861 14.9616 15.5505 14.5294C16.4439 14.074 17.4649 13.8419 18.5903 13.8419C18.6484 13.8419 18.8833 13.8535 19.1415 13.868C19.5737 13.8912 20.003 13.9782 20.4148 14.1262L21.0153 14.3408L21.1023 13.9869C21.3111 13.1429 21.4446 12.0754 21.4765 10.979C21.5055 10.0073 21.4533 9.1081 21.3343 8.57438L21.2995 8.41195L21.1458 8.34523C20.1799 7.92174 19.0254 7.85793 18.425 7.85793C16.8993 7.85793 15.4229 8.13059 14.0335 8.6672C12.6412 9.18351 11.3794 9.94638 10.2743 10.9355C9.19233 11.9275 8.32794 13.1342 7.6985 14.5294C7.06907 15.8956 6.75 17.459 6.75 19.1646C6.75 20.9861 7.15029 22.6656 7.93926 24.1536V24.1594C8.75433 25.6271 9.86817 26.8077 11.2431 27.6663C12.6267 28.551 14.193 29.0006 15.8928 29.0006C16.995 29.0006 18.4337 28.9455 19.797 28.5249C22.7846 27.6025 24.8209 25.8447 26.2074 22.9934C27.8259 19.6664 28.5076 14.8513 28.2929 8.26692H28.2958Z" fill="white"/>
<path d="M27.9302 21.7146L27.8287 22.0221C27.2138 23.9017 26.4915 25.4361 24.96 26.8139L24.5481 27.1852L28.3305 28.5224L29.25 22.1236L27.9273 21.7146H27.9302Z" fill="white"/>
</g>
<defs>
<filter id="filter0_d_14419_49728" x="5.81753" y="6.28528" width="24.3649" height="23.8337" filterUnits="userSpaceOnUse" color-interpolation-filters="sRGB">
<feFlood flood-opacity="0" result="BackgroundImageFix"/>
<feColorMatrix in="SourceAlpha" type="matrix" values="0 0 0 0 0 0 0 0 0 0 0 0 0 0 0 0 0 0 127 0" result="hardAlpha"/>
<feOffset dy="0.186493"/>
<feGaussianBlur stdDeviation="0.466233"/>
<feComposite in2="hardAlpha" operator="out"/>
<feColorMatrix type="matrix" values="0 0 0 0 0 0 0 0 0 0 0 0 0 0 0 0 0 0 0.15 0"/>
<feBlend mode="normal" in2="BackgroundImageFix" result="effect1_dropShadow_14419_49728"/>
<feBlend mode="normal" in="SourceGraphic" in2="effect1_dropShadow_14419_49728" result="shape"/>
</filter>
</defs>
</svg>
