<svg width="342" height="196" viewBox="0 0 342 196" fill="none" xmlns="http://www.w3.org/2000/svg">
<path d="M203.121 194.49H101.674H0.25M203.121 194.49L210.343 128.107L212.75 102.802M203.121 194.49H247.75H341.75M253.75 128.107H266.75L253.75 102.802H212.75M253.75 128.107H223.25L212.75 102.802M253.75 128.107L252.699 139.735L252.368 143.394M212.75 102.802L198.75 128.107H121.154M212.75 102.802L159.821 102.802M135.907 98.8732L123.179 74.1875L123.121 74.0773M135.907 98.8732H141.307M135.907 98.8732C134.842 98.8732 133.979 99.7366 133.979 100.802V102.802M141.307 98.8732H153.264M141.307 98.8732L138.718 75.1971M153.264 98.8732H159.05M153.264 98.8732L157.058 74.5932M159.05 98.8732L170.621 74.1875L170.671 74.0978M159.05 98.8732C159.476 98.8732 159.821 99.2186 159.821 99.6446V102.802M138.718 75.1971C138.68 75.2466 138.643 75.2959 138.607 75.3448C132.34 68.5559 126.368 71.047 123.121 74.0773M138.718 75.1971C141.22 71.9201 148.152 67.5059 157.058 74.5932M123.121 74.0773C122.558 74.6032 122.077 75.1453 121.69 75.658C121.512 74.7478 121.386 73.8197 121.316 72.8766M157.058 74.5932C157.207 74.7118 157.357 74.8338 157.507 74.959C159.839 72.2592 165.591 68.5285 170.671 74.0978M170.671 74.0978C170.825 74.2664 170.978 74.4435 171.131 74.6294C171.303 73.4777 171.393 72.2999 171.393 71.1018C171.393 57.6812 160.168 46.8018 146.321 46.8018C137.651 46.8018 130.008 51.0678 125.506 57.5524M125.506 57.5524C123.386 56.7732 120.666 57.0901 118.347 59.2542C119.735 56.5766 120.965 51.1024 114.777 50.6264C111.035 50.3385 108.41 53.5168 106.744 57.0832C107.537 51.7575 106.625 41.9985 96.6289 45.5686C89.6471 48.0621 87.7739 56.409 87.7858 63.7167C85.9184 60.4439 77.8856 61.3364 77.2908 66.989C76.9337 70.3828 78.9484 72.3924 82.2143 73.5345C89.796 74.0305 107.934 74.7248 119.834 73.5345C120.344 73.3469 120.838 73.1259 121.316 72.8766M125.506 57.5524C122.818 61.4235 121.25 66.0851 121.25 71.1018C121.25 71.6987 121.272 72.2905 121.316 72.8766M187.947 71.3875H187.424C186.269 71.3875 185.333 72.3238 185.333 73.4789V90.2103C185.333 91.3654 186.269 92.3018 187.424 92.3018H218.273C219.428 92.3018 220.364 91.3654 220.364 90.2103V72.4332C220.364 71.8556 219.896 71.3875 219.319 71.3875M187.947 71.3875L170.693 37.9246L170.615 37.7753M187.947 71.3875H195.267M195.267 71.3875H211.476M195.267 71.3875L191.757 39.2931M211.476 71.3875H219.319M211.476 71.3875L216.618 38.4745M219.319 71.3875L235.004 37.9246L235.072 37.8031M191.757 39.2931C191.706 39.3603 191.656 39.4271 191.607 39.4935C183.112 30.2907 175.017 33.6676 170.615 37.7753M191.757 39.2931C195.148 34.8511 204.546 28.8673 216.618 38.4745M170.615 37.7753C169.852 38.4882 169.199 39.223 168.675 39.9179C168.283 37.9174 168.079 35.8528 168.079 33.7418C168.079 15.5495 183.294 0.801758 202.064 0.801758C220.834 0.801758 236.05 15.5495 236.05 33.7418C236.05 35.3659 235.929 36.9625 235.694 38.5237C235.488 38.2717 235.28 38.0316 235.072 37.8031M216.618 38.4745C216.821 38.6354 217.023 38.8007 217.227 38.9704C220.388 35.3107 228.185 30.2536 235.072 37.8031M159.821 102.802L133.979 102.802M133.979 102.802L103.339 102.802L101.101 109.802M71.5516 194.802H124.25L121.154 128.107M71.5516 194.802L68.4179 127.991L67.3734 109.802M71.5516 194.802H57.25M67.3734 109.802H61.0617M67.3734 109.802H101.101M61.0617 109.802H54.75L45.75 194.802H57.25M61.0617 109.802L57.25 194.802M81.25 118.802L82.504 127.348C84.25 136.302 89.2172 142.356 97.25 141.802C103.25 141.388 108.75 137.802 107.942 125.262L107.25 118.802M121.154 128.107L121.148 127.991L120.3 109.802H101.101M260.418 159.302V194.802M260.418 194.802H255.418M260.418 194.802H264.918M255.418 194.802L253.918 163.802M255.418 194.802H251.418M246.918 157.802H277.918L277.633 159.908M246.918 157.802H238.918L243.418 194.802H247.418M246.918 157.802L251.418 194.802M251.418 194.802H247.418M247.418 194.802L243.418 165.302M272.918 161.302L269.418 194.802M269.418 194.802H272.918L272.92 194.78M269.418 194.802H264.918M266.418 162.302L264.918 194.802M239.495 162.547C233.418 164.802 232.918 155.802 236.474 155.919C233.418 154.802 233.418 148.802 237.974 148.419C238.974 148.586 241.074 149.219 241.474 150.419C241.641 148.253 242.974 144.219 246.974 145.419C248.271 145.808 249.231 146.332 249.942 146.92M247.474 155.919C247.648 155.898 247.814 155.873 247.974 155.846M247.974 155.846V157.419M247.974 155.846C249.859 155.527 250.871 154.842 251.405 154.055C251.874 153.363 251.974 152.591 251.974 151.92C251.974 151.531 251.974 151.007 251.887 150.419M255.974 157.419C255.308 156.253 254.374 153.62 255.974 152.42C256.286 152.186 256.602 152.025 256.914 151.92M259.974 152.42C259.845 152.323 259.675 152.218 259.474 152.121M259.474 152.121C258.841 151.816 257.896 151.589 256.914 151.92M259.474 152.121C259.758 151.072 260.717 149.274 262.474 149.253M268.474 157.419C268.974 157.086 269.774 156.12 268.974 154.92C268.829 154.701 268.659 154.535 268.474 154.41M268.474 154.41C267.645 153.852 266.52 154.147 265.974 154.42C266.141 153.086 265.874 150.219 263.474 149.42C263.116 149.3 262.783 149.249 262.474 149.253M268.474 154.41C268.141 153.914 267.774 152.62 268.974 151.42C268.974 150.753 269.374 149.32 270.974 148.92C271.264 148.847 271.606 148.827 271.974 148.855M251.887 150.419C252.876 149.419 255.266 148.32 256.914 151.92M251.887 150.419C251.861 150.243 251.827 150.06 251.783 149.873C251.553 148.907 251.049 147.835 249.942 146.92M271.974 148.855C274.152 149.019 277.257 150.854 275.974 153.42C280.201 152.152 280.855 158.745 277.633 159.908M271.974 148.855C272.641 147.877 273.174 146.02 269.974 146.42C270.974 145.42 272.074 143.22 268.474 142.42C263.974 141.42 260.974 144.92 263.974 147.92C263.836 147.935 263.658 147.973 263.474 148.039M262.474 149.253C262.474 148.579 262.996 148.212 263.474 148.039M249.942 146.92C249.458 145.436 249.278 142.682 252.368 143.394M263.474 148.039C263.074 147.068 261.641 146.888 260.974 146.92C262.308 144.586 263.674 139.72 258.474 138.92C253.274 138.12 252.308 141.586 252.474 143.42C252.439 143.411 252.403 143.402 252.368 143.394M283.214 190.59C283.991 190.585 284.568 191.411 284.32 192.087C286.968 193.829 284.834 194.811 283.437 195.084H282.016C281.506 195.084 281.071 194.767 280.896 194.319M283.214 190.59C282.838 190.593 282.414 190.791 282.016 191.295C281.664 191.566 280.93 192.307 280.814 193.097V193.882C280.814 194.036 280.843 194.184 280.896 194.319M283.214 190.59C283.425 188.602 281.44 187.187 279.974 187.92C275.974 182.32 274.308 187.253 273.974 190.42C273.799 190.47 273.636 190.53 273.485 190.599M280.896 194.319C280.702 194.525 280.491 194.729 280.267 194.92H275.474C274.41 195.376 273.531 195.231 272.92 194.78M273.485 190.599C271.544 191.487 271.625 193.823 272.92 194.78M273.485 190.599L277.633 159.908M269.858 85.3963C286.715 91.2356 290.127 101.715 286.352 108.215M286.352 108.215C285.459 109.753 284.163 111.069 282.547 112.047C275.864 116.093 261.491 112.765 263.107 106.819C264.972 100.786 274.171 101.448 281.135 104.53C282.927 105.57 284.716 106.819 286.352 108.215ZM286.352 108.215C293.338 114.175 297.549 122.837 287.342 129.604M235.359 70.395C234.963 70.5648 234.59 70.6999 234.25 70.8018C234.595 70.6518 234.967 70.5135 235.359 70.395ZM235.359 70.395C238.59 69.0095 243.337 65.3139 243.74 58.5039M235.359 70.395C239.042 69.2792 244.392 69.912 243.951 79.0842M243.74 58.5039C243.772 57.9567 243.777 57.3895 243.75 56.8018C243.696 57.2862 243.686 57.8645 243.74 58.5039ZM243.74 58.5039C244.021 61.8238 246.042 66.7893 252.75 68.8018C250.148 68.9548 245.073 71.2723 243.951 79.0842M243.951 79.0842C243.851 79.7791 243.783 80.5175 243.75 81.3018C243.852 80.5123 243.918 79.7741 243.951 79.0842ZM141.861 32.2919C141.643 32.3855 141.437 32.4599 141.25 32.516C141.44 32.4334 141.645 32.3572 141.861 32.2919ZM141.861 32.2919C143.641 31.5285 146.257 29.4921 146.479 25.7397M141.861 32.2919C143.89 31.6771 146.838 32.0258 146.595 37.0798M146.479 25.7397C146.497 25.4382 146.499 25.1256 146.485 24.8018C146.455 25.0687 146.449 25.3874 146.479 25.7397ZM146.479 25.7397C146.634 27.569 147.748 30.3051 151.444 31.414C150.01 31.4983 147.213 32.7753 146.595 37.0798M146.595 37.0798C146.54 37.4627 146.503 37.8696 146.485 38.3018C146.541 37.8668 146.577 37.46 146.595 37.0798ZM143.252 164.393H163.987C168.486 164.393 172.133 160.746 172.133 156.247C172.133 151.749 168.486 148.102 163.987 148.102H143.252C138.753 148.102 135.106 151.749 135.106 156.247C135.106 160.746 138.753 164.393 143.252 164.393ZM211.999 86.0275C211.999 87.4713 210.828 88.6418 209.384 88.6418C207.94 88.6418 206.77 87.4713 206.77 86.0275C206.77 84.5836 207.94 83.4132 209.384 83.4132C210.828 83.4132 211.999 84.5836 211.999 86.0275ZM215.659 86.0275C215.659 87.4713 214.488 88.6418 213.044 88.6418C211.6 88.6418 210.43 87.4713 210.43 86.0275C210.43 84.5836 211.6 83.4132 213.044 83.4132C214.488 83.4132 215.659 84.5836 215.659 86.0275Z" stroke="black"/>
</svg>
